<?xml version="1.0" encoding="UTF-8" standalone="no"?>
<svg
   xmlns:dc="http://purl.org/dc/elements/1.1/"
   xmlns:cc="http://creativecommons.org/ns#"
   xmlns:rdf="http://www.w3.org/1999/02/22-rdf-syntax-ns#"
   xmlns:svg="http://www.w3.org/2000/svg"
   xmlns="http://www.w3.org/2000/svg"
   xmlns:sodipodi="http://sodipodi.sourceforge.net/DTD/sodipodi-0.dtd"
   xmlns:inkscape="http://www.inkscape.org/namespaces/inkscape"
   id="RSSicon"
   viewBox="0 0 16 16"
   width="512"
   height="512"
   version="1.1"
   inkscape:version="0.48.4 r9939"
   sodipodi:docname="f2r.svg">
  <metadata
     id="metadata19">
    <rdf:RDF>
      <cc:Work
         rdf:about="">
        <dc:format>image/svg+xml</dc:format>
        <dc:type
           rdf:resource="http://purl.org/dc/dcmitype/StillImage" />
        <dc:title>RSS feed icon</dc:title>
      </cc:Work>
    </rdf:RDF>
  </metadata>
  <defs
     id="defs17">
    <clipPath
       clipPathUnits="userSpaceOnUse"
       id="clipPath5228-4-91-3-4">
      <rect
         style="fill:#c60032;fill-opacity:0.16733069;stroke:#c60032;stroke-width:0.99821484;stroke-linecap:round;stroke-linejoin:miter;stroke-miterlimit:0;stroke-opacity:0.15936255;stroke-dasharray:none"
         id="rect5230-7-6-4-3"
         width="389.00177"
         height="389.00177"
         x="13.999107"
         y="556.42554" />
    </clipPath>
  </defs>
  <sodipodi:namedview
     pagecolor="#ffffff"
     bordercolor="#666666"
     borderopacity="1"
     objecttolerance="10"
     gridtolerance="10"
     guidetolerance="10"
     inkscape:pageopacity="0"
     inkscape:pageshadow="2"
     inkscape:window-width="1398"
     inkscape:window-height="1029"
     id="namedview15"
     showgrid="false"
     inkscape:zoom="1.5901425"
     inkscape:cx="255.97042"
     inkscape:cy="256.0481"
     inkscape:window-x="0"
     inkscape:window-y="19"
     inkscape:window-maximized="1"
     inkscape:current-layer="RSSicon"
     showguides="false"
     inkscape:guide-bbox="true">
    <sodipodi:guide
       orientation="1,0"
       position="256,184.29484"
       id="guide3442" />
    <sodipodi:guide
       orientation="0,1"
       position="112.71747,255.97045"
       id="guide3444" />
    <sodipodi:guide
       position="0,0"
       orientation="0,512"
       id="guide3031" />
    <sodipodi:guide
       position="512,0"
       orientation="-512,0"
       id="guide3033" />
    <sodipodi:guide
       position="512,512"
       orientation="0,-512"
       id="guide3035" />
    <sodipodi:guide
       position="0,512"
       orientation="512,0"
       id="guide3037" />
  </sodipodi:namedview>
  <title
     id="title3">RSS feed icon</title>
  <style
     type="text/css"
     id="style5">
    .button {stroke: none; fill: orange;}
    .symbol {stroke: none; fill: white;}
  </style>
  <g
     id="g3279"
     transform="matrix(0,1,-1,0,8,0)">
    <rect
       id="rect7"
       rx="1.5"
       height="8"
       width="8"
       class="button"
       x="0"
       y="0"
       style="fill:#ffa500;stroke:none" />
    <circle
       id="circle9"
       r="1"
       cy="6"
       cx="2"
       class="symbol"
       sodipodi:cx="2"
       sodipodi:cy="6"
       sodipodi:rx="1"
       sodipodi:ry="1"
       style="fill:#ffffff;stroke:none"
       d="M 3,6 C 3,6.5522847 2.5522847,7 2,7 1.4477153,7 1,6.5522847 1,6 1,5.4477153 1.4477153,5 2,5 2.5522847,5 3,5.4477153 3,6 z" />
    <path
       id="path11"
       d="M 1,4 A 3,3 0 0 1 4,7 H 5 A 4,4 0 0 0 1,3 z"
       class="symbol"
       inkscape:connector-curvature="0"
       style="fill:#ffffff;stroke:none" />
    <path
       id="path13"
       d="M 1,2 A 5,5 0 0 1 6,7 H 7 A 6,6 0 0 0 1,1 z"
       class="symbol"
       inkscape:connector-curvature="0"
       style="fill:#ffffff;stroke:none" />
  </g>
  <g
     id="g5106-5-0-7-3"
     clip-path="url(#clipPath5228-4-91-3-4)"
     transform="matrix(0.02055329,0,0,0.02055329,7.7151573,-3.434648)">
    <path
       inkscape:connector-curvature="0"
       id="path4064-3-2-8-0"
       d="m 102.1875,613.8125 c -20.153977,3.76379 -41.056215,7.6308 -59.15625,17.40625 -4.775995,8.72455 2.482504,17.57573 3.59375,26.3125 0.80373,6.15297 6.228532,13.85716 13.25,10.25 16.602377,-5.55875 33.263728,-10.67856 50.34375,-14.25 6.18415,-1.44656 6.97177,-8.89478 3.625,-13.40625 -5.84201,-7.23556 -0.65439,-17.86079 -6.875,-24.75 -1.28492,-1.24456 -3.01316,-1.78219 -4.78125,-1.5625 z"
       style="fill:#c60032;fill-opacity:1;stroke:#c60032;stroke-width:0.32258064;stroke-linecap:round;stroke-linejoin:miter;stroke-miterlimit:0;stroke-opacity:1;stroke-dasharray:none" />
    <path
       inkscape:connector-curvature="0"
       id="path4067-0-0-1-3"
       d="m 19.53125,640.3125 c -14.8809528,6.19409 -29.596834,13.26678 -43.34375,21.65625 -4.224518,8.54969 0.09018,18.16651 -1.068724,27.21805 -0.822253,5.94913 1.045709,15.97765 9.068724,14.5007 6.6717439,-1.77093 11.7405979,-6.98109 18.21875,-9.28125 10.830098,-6.09128 23.501298,-9.85682 32.6875,-18.28125 1.540061,-8.59665 -5.230529,-15.63424 -5.90625,-23.96875 -1.029318,-4.95733 -3.524875,-11.99778 -9.65625,-11.84375 z"
       style="fill:#c60032;fill-opacity:1;stroke:#c60032;stroke-width:0.32258064;stroke-linecap:round;stroke-linejoin:miter;stroke-miterlimit:0;stroke-opacity:1;stroke-dasharray:none" />
    <path
       inkscape:connector-curvature="0"
       id="path3596-1-2-3-3"
       d="M 52.875,569.9375 C 34.605913,569.84944 15.250585,582.02486 12.34375,601 c -5.9942828,27.50116 4.629794,55.10585 13.977991,80.58155 24.23092,60.69854 60.248124,116.112 97.990759,169.29345 13.08318,-0.35969 26.16675,-0.70548 39.25,-1.0625 C 125.21895,786.15553 84.518603,723.39608 58.327327,653.58527 54.143205,641.38262 49.537801,627.00296 54.09375,614.46875 c 6.680322,-8.00941 18.725024,-3.90453 27.4375,-2.28125 14.127727,3.49987 27.46963,9.45134 41.1875,14.21875 2.83505,-12.67584 5.33428,-25.4251 8.0625,-38.125 C 105.83904,578.60317 79.999402,569.24146 52.875,569.9375 z"
       style="fill:#c60032;fill-opacity:1;stroke:#c60032;stroke-width:1px;stroke-linecap:butt;stroke-linejoin:miter;stroke-opacity:1" />
    <path
       inkscape:connector-curvature="0"
       id="path3164-7-9-2-0"
       d="m 354.65625,828.28125 c -4.94166,4.86047 -14.86788,6.98092 -14.5,15.40625 18.98832,39.27834 33.72961,80.71046 46.5607,122.47289 2.11723,6.78129 4.06301,13.61564 6.0643,20.43336 6.12844,-4.43505 15.758,2.49144 20.46875,-5 1.00252,-8.58089 -4.79035,-15.88908 -6.10108,-24.14238 C 393.05109,912.94099 377.0079,868.91129 356.625,826.875 c -0.65625,0.46875 -1.3125,0.9375 -1.96875,1.40625 z"
       style="fill:#c60032;fill-opacity:1;stroke:#c60032;stroke-width:1px;stroke-linecap:butt;stroke-linejoin:miter;stroke-opacity:1" />
    <path
       inkscape:connector-curvature="0"
       id="path3785-4-2-2-2"
       d="m 150.3125,817.5 c -26.9802,-0.16725 -47.76049,30.37532 -38.74124,55.58202 6.76098,23.89044 37.29748,37.50715 59.20999,25.04298 22.1193,-11.26956 30.15363,-43.32799 14.65625,-63.125 -7.94072,-11.00627 -21.42362,-18.15443 -35.125,-17.5 z"
       style="fill:#c60032;fill-opacity:1;stroke:#c60032;stroke-width:1.03944004;stroke-linecap:round;stroke-linejoin:miter;stroke-miterlimit:0;stroke-opacity:1" />
    <path
       inkscape:connector-curvature="0"
       id="path3785-3-9-91-5-7"
       d="m 145.6875,575.28125 c -28.88092,-0.79449 -53.052633,29.21962 -47.25,57.21875 3.87793,26.62647 32.99273,46.80828 59.25,39.15625 26.08988,-6.5373 42.91965,-36.76203 34,-62.3125 -6.19046,-19.39478 -25.27602,-34.6109 -46,-34.0625 z"
       style="fill:#c60032;fill-opacity:1;stroke:#c60032;stroke-width:1.21691978;stroke-linecap:round;stroke-linejoin:miter;stroke-miterlimit:0;stroke-opacity:1" />
    <path
       inkscape:connector-curvature="0"
       id="path3805-1-3-6-8"
       d="m 343.5,801.96875 c -18.94195,-0.96022 -32.23018,24.00268 -20.5,39 10.1606,16.21054 38.53525,13.17004 44.53125,-5.25 6.29832,-15.57219 -7.04197,-34.89279 -24.03125,-33.75 z"
       style="fill:#c60032;fill-opacity:1;stroke:#c60032;stroke-width:1.54442966;stroke-linecap:round;stroke-linejoin:miter;stroke-miterlimit:0;stroke-opacity:1" />
    <path
       inkscape:connector-curvature="0"
       id="path3811-2-3-7-2"
       d="m 463.9375,528.84375 c -5.88182,-0.28318 -6.23382,6.76107 -5.125,10.9375 0.83846,7.46014 -1.98858,15.73937 1.71875,22.6875 6.17084,3.48974 13.03788,-3.96954 10.34375,-10.03125 -1.69557,-7.04045 2.20146,-15.29606 -1.8125,-21.65625 -1.32095,-1.32792 -3.23255,-2.10455 -5.125,-1.9375 z"
       style="fill:none;stroke:#c60032;stroke-width:1px;stroke-linecap:butt;stroke-linejoin:miter;stroke-opacity:1" />
    <path
       inkscape:connector-curvature="0"
       id="path3848-8-6-8-3"
       d="m 106.46875,614.125 c -33.937404,2.93825 -65.949109,16.44418 -96.6821583,30.48184 -11.9269,5.95568 -24.4195357,11.39168 -35.1928417,19.17441 -3.428004,4.45282 2.36772,10.42815 7.09375,7.65625 19.5041409,-5.88649 37.959765,-14.42363 57.282309,-21.02679 23.788003,-9.06664 48.191265,-17.06967 71.186441,-27.78571 3.47296,-2.93859 0.91371,-9.11409 -3.6875,-8.5 z"
       style="fill:none;stroke:#c60032;stroke-width:1px;stroke-linecap:butt;stroke-linejoin:miter;stroke-opacity:1" />
    <path
       inkscape:connector-curvature="0"
       id="path3852-0-0-0-1"
       d="m -20.75,661.46875 c -6.590216,0.83868 -4.52476,9.17341 -4.337643,13.65555 0.345781,9.03131 0.658947,18.06399 1.025143,27.09445 5.389046,3.61588 13.908501,-1.26251 12,-7.84375 -1.5072,-10.74707 -0.57375,-21.7782 -1.53125,-32.625 -2.482793,0.5008 -4.733285,-0.36562 -7.15625,-0.28125 z"
       style="fill:none;stroke:#c60032;stroke-width:1px;stroke-linecap:butt;stroke-linejoin:miter;stroke-opacity:1" />
    <path
       inkscape:connector-curvature="0"
       id="path3862-5-1-9-1"
       d="m 198.8125,499.34375 c -5.26501,-0.49687 -9.40563,5.57897 -6.125,10 4.40562,4.66258 11.63757,0.76077 17.06177,2.41314 6.9167,0.27335 13.83502,0.5095 20.75073,0.80561 4.05808,-5.03684 -0.0923,-13.86338 -6.8125,-12.625 -8.29461,0.88378 -16.57778,-0.81912 -24.875,-0.59375 z"
       style="fill:none;stroke:#000000;stroke-width:1px;stroke-linecap:butt;stroke-linejoin:miter;stroke-opacity:1" />
    <path
       inkscape:connector-curvature="0"
       id="path3878-4-2-0-2"
       d="m 177.90625,629.625 c -4.62946,1.78991 -2.41369,8.15095 0.78125,10.34375 22.09434,25.51331 45.54566,50.1628 68.05973,75.43384 32.11769,35.21666 63.91514,70.90551 96.72152,105.37866 4.65139,3.06438 9.9958,-3.259 6.75,-7.5625 -7.26979,-16.85779 -18.22036,-31.62989 -28.09433,-47.05945 -32.05986,-46.40412 -70.2513,-89.23359 -116.08052,-122.26761 -8.67889,-5.6891 -17.62857,-12.15815 -27.88765,-14.32919 l -0.25,0.0625 z"
       style="fill:none;stroke:#c60032;stroke-width:1px;stroke-linecap:butt;stroke-linejoin:miter;stroke-opacity:1" />
    <path
       inkscape:connector-curvature="0"
       id="path3890-4-35-7-1"
       d="m 119,848.4375 c -28.648225,5.3021 -56.429159,14.86705 -83.841408,24.70225 -21.894185,8.4555 -43.8795669,17.41237 -63.877342,29.61025 -3.868296,3.80513 0.241297,10.95215 5.53125,8.78125 14.8526188,-3.37676 28.5629415,-10.57442 43.128176,-15.09786 34.370268,-12.82232 69.287011,-24.53754 103.246824,-38.24589 4.82609,-3.70482 2.32374,-10.96798 -4.1875,-9.75 z"
       style="fill:none;stroke:#c60032;stroke-width:1px;stroke-linecap:butt;stroke-linejoin:miter;stroke-opacity:1" />
    <path
       inkscape:connector-curvature="0"
       id="path3892-3-7-6-0"
       d="M 121.09375,874.4375 C 72.544279,882.03629 24.032132,889.92678 -24.5,897.65625 c -7.369361,5.49138 -2.306478,15.14942 -2.78125,22.5 0.537866,6.73492 -1.094992,14.81529 4.65625,19.84375 46.87523,-24.75542 97.013978,-44.44126 149.09375,-54.65625 4.93479,-1.63444 5.53378,-10.2701 -0.5,-10.65625 -1.5975,-0.37307 -3.24752,-0.29206 -4.875,-0.25 z"
       style="fill:none;stroke:#c60032;stroke-width:1px;stroke-linecap:butt;stroke-linejoin:miter;stroke-opacity:1" />
    <path
       inkscape:connector-curvature="0"
       id="path3908-8-4-8-5"
       d="m 351.5625,815.59375 c -58.12517,2.40011 -116.39315,8.88431 -172.71875,23.53125 -4.2173,1.88302 -7.13215,5.581 -10.625,8.5 17.59451,5.83096 35.60927,-1.41165 53.39333,-2.44435 46.22317,-6.34973 92.79292,-11.52316 138.79417,-18.6494 4.81902,-1.351 5.6726,-9.40223 -0.0312,-10.125 -2.82437,-0.92149 -5.86379,-0.86989 -8.8125,-0.8125 z"
       style="fill:none;stroke:#c60032;stroke-width:1px;stroke-linecap:butt;stroke-linejoin:miter;stroke-opacity:1" />
    <path
       inkscape:connector-curvature="0"
       id="path3914-2-6-8-6"
       d="m 162.40625,885.4375 c -3.44265,1.77956 -7.74551,5.85724 -4.53125,9.875 34.89364,36.97254 69.97023,74.21012 105,111.2187 6.03568,-0.7905 9.72244,-9.32353 4.375,-13.3437 -18.2526,-17.9257 -35.20505,-37.52161 -53.21796,-55.95569 -16.7343,-17.70808 -33.42537,-35.45711 -50.18829,-53.13806 l -0.73053,0.68288 -0.70697,0.66087 z"
       style="fill:none;stroke:#c60032;stroke-width:1px;stroke-linecap:butt;stroke-linejoin:miter;stroke-opacity:1" />
    <g
       transform="translate(-26.027397,3.196347)"
       id="g3080-9-8-9-3">
      <path
         style="fill:none;stroke:#c60032;stroke-width:1px;stroke-linecap:butt;stroke-linejoin:miter;stroke-opacity:1"
         d="m 334.63855,995.73567 5.34251,2.4602 c -0.71283,-46.60458 -3.1926,-104.19524 29.44785,-163.19022 l -10.09156,-0.11335"
         id="path3956-7-1-4-9"
         inkscape:connector-curvature="0"
         sodipodi:nodetypes="cc" />
      <path
         style="fill:none;stroke:#c60032;stroke-width:1px;stroke-linecap:butt;stroke-linejoin:miter;stroke-opacity:1"
         d="m 362.07804,830.11985 c -30.30041,48.2798 -29.58363,123.86886 -26.99387,166.25767"
         id="path3958-9-11-7-2"
         inkscape:connector-curvature="0"
         sodipodi:nodetypes="cc" />
    </g>
    <path
       inkscape:connector-curvature="0"
       id="path4864-6-7-8-6"
       d="m 299.78125,614.75 c -7.75346,5.13209 -16.23246,10.96808 -20.5,19.3125 -0.51954,7.77766 9.02789,9.22213 14.875,9.1875 8.62392,1.20505 17.44714,5.3592 26.125,3.375 6.13091,-5.5208 15.59298,-9.49167 18.15625,-17.78125 -0.48773,-7.99037 -10.05627,-8.22476 -15.90625,-9.90625 -7.45605,-1.56736 -15.13506,-5.17315 -22.75,-4.1875 z"
       style="fill:#c60032;fill-opacity:1;stroke:none" />
    <path
       inkscape:connector-curvature="0"
       id="path4866-4-5-4-4"
       d="m 331.96875,622.5 c -7.76767,4.17252 -15.52411,9.79046 -20.25,17.09375 -1.42203,7.22182 7.31398,9.67416 12.77968,10.28534 41.30555,10.50799 80.8559,28.07583 116.75157,50.87091 7.7089,0.44369 13.1155,-7.27588 14.90625,-13.75 -0.37858,-8.3178 -10.21636,-10.30375 -15.37495,-15.12713 -33.17063,-22.01951 -69.52503,-39.68256 -108.12505,-49.71662 l -0.6875,0.34375 z"
       style="fill:#c60032;fill-opacity:1;stroke:none" />
    <path
       inkscape:connector-curvature="0"
       id="path4868-0-0-1-9"
       d="m 462.625,528.875 c -61.06953,15.43165 -117.16614,47.32692 -165.21875,87.34375 -3.74397,5.68825 2.89164,12.42231 8.8125,11.625 9.88453,1.6032 19.51409,6.92109 29.59375,5.875 23.12254,-16.48472 46.42004,-32.98148 72.0464,-45.45567 19.22592,-9.68109 39.43185,-17.7995 60.2036,-23.76308 5.78524,-7.23923 1.50598,-16.95087 3.125,-25.28125 0.22179,-5.01046 -2.49011,-11.34797 -8.5625,-10.34375 z"
       style="fill:#c60032;fill-opacity:1;stroke:none" />
    <path
       inkscape:connector-curvature="0"
       id="path4872-3-8-9-0"
       d="m 198.75,499.15625 c -8.74164,0.14369 -12.73237,9.50337 -18.40537,14.69269 -15.89453,19.72852 -27.62171,42.60057 -38.59463,65.33856 -1.13136,6.89877 7.23235,9.17217 12.5,9.375 7.69289,1.2519 13.14323,7.38656 19.8125,10.65625 6.62775,1.01457 9.63418,-6.40191 10.78125,-11.625 5.30344,-12.68513 11.25793,-25.17957 18.03125,-37.03125 8.49011,-10.9197 16.00649,-22.61563 25.03125,-33.125 3.40255,-4.20801 8.20893,-11.54134 2.28125,-15.75 -6.80216,-3.78659 -15.27592,-0.99568 -22.6875,-2.40625 -2.91341,-0.13848 -5.8338,-0.18308 -8.75,-0.125 z"
       style="fill:#c60032;fill-opacity:1;stroke:none" />
    <path
       inkscape:connector-curvature="0"
       id="path3583-6-3-9-3"
       d="m 45.40625,658.9375 c -8.268807,0.10061 -7.805393,13.74554 0.0625,14.25 7.674324,1.14014 10.614364,-10.59765 3.71875,-13.625 -1.182626,-0.54024 -2.484428,-0.75299 -3.78125,-0.625 z"
       style="fill:#c60032;fill-opacity:1;stroke:none" />
    <path
       inkscape:connector-curvature="0"
       id="path4858-6-70-8-4"
       d="m 186.25,603.15625 c -7.40909,0.35454 -7.97693,9.77779 -5.0625,14.84375 1.06434,5.88399 -2.2906,14.56011 4.15625,18 8.92574,2.23435 18.0913,-1.13827 27.15625,-0.3125 24.68176,-0.56101 49.23029,2.58856 73.71875,5.21875 7.72305,-4.72836 15.03106,-10.89857 20.46875,-18 1.84543,-6.29018 -5.42987,-10.49026 -10.88826,-10.2201 -36.03392,-7.15686 -72.81888,-9.87027 -109.54924,-9.5299 z"
       style="fill:#c60032;fill-opacity:1;stroke:none" />
    <path
       inkscape:connector-curvature="0"
       id="path8038-5-6-6-4"
       d="m 230.03125,684.8125 c -6.66189,4.55253 -11.13063,12.68401 -16.625,18.90625 -25.58085,34.10907 -46.82085,71.63664 -62.9375,111.09375 -1.62342,4.54379 -4.97416,11.02319 0.6875,14.09375 5.43268,2.50636 12.24522,1.50824 16.65625,6.125 3.57989,3.93411 10.85521,7.27358 14.59375,1.71875 3.70709,-5.54826 4.33848,-12.52314 7.90625,-18.15625 17.3692,-39.27933 40.37136,-75.68264 67.65625,-108.75 1.99416,-8.48676 -7.47909,-12.20528 -12.65625,-16.71875 -4.48281,-3.55129 -8.85859,-9.13777 -15.28125,-8.3125 z"
       style="fill:#c60032;fill-opacity:1;stroke:none" />
    <path
       inkscape:connector-curvature="0"
       id="path8040-8-9-2-9"
       d="m 240.53125,672.6875 c -6.74436,3.84341 -12.16689,10.68046 -14.71875,17.78125 1.5117,8.64171 11.78744,10.52552 16.76552,16.67886 3.73649,4.51585 11.54666,7.95381 15.79698,2.16489 3.76748,-4.16293 9.00171,-8.80274 9.34375,-14.5625 -1.89258,-8.14453 -11.57571,-10.4628 -16.15625,-16.78125 -2.93224,-2.71271 -6.87778,-5.97459 -11.03125,-5.28125 z"
       style="fill:#c60032;fill-opacity:1;stroke:none" />
    <path
       inkscape:connector-curvature="0"
       id="path8042-2-2-4-7"
       d="m 282.625,628.9375 c -16.68874,13.79748 -31.91466,29.50372 -45.75,46.15625 -2.87283,6.98879 4.78927,12.05363 9.75,15.3125 5.40862,3.82867 10.25953,12.80041 18.09375,10.1875 6.11379,-3.16985 8.66394,-10.19548 14.125,-14.28125 13.58427,-14.63704 28.8457,-27.54825 42.875,-41.625 2.73564,-6.72013 -5.3987,-11.20856 -11.09375,-11.1875 -9.20877,-1.59828 -19.05519,-4.49213 -28,-4.5625 z"
       style="fill:#c60032;fill-opacity:1;stroke:none" />
    <path
       inkscape:connector-curvature="0"
       id="path3129-9-7-3-7"
       d="M 122.9375,655.125 C 111.53515,715.13194 120.51529,776.41274 130,836 c 11.66667,0 23.33333,0 35,0 -12.99655,-59.40007 -15.01829,-120.98775 -7.875,-181.34375 -11.29889,-0.50824 -22.6034,-0.87446 -33.90625,-1.28125 l -0.15868,0.98733 -0.12257,0.76267 z"
       style="fill:#c60032;fill-opacity:1;stroke:#c60032;stroke-width:1px;stroke-linecap:butt;stroke-linejoin:miter;stroke-opacity:1" />
    <path
       inkscape:connector-curvature="0"
       id="path3274-5-3-2-5"
       d="m 351.75,817.46875 c 0.75433,6.39449 -2.85406,15.65315 4.46875,19.28125 18.14089,0.93493 36.75294,3.05281 53.625,10.40625 5.64044,1.21945 9.95791,6.70769 15.71875,6.84375 4.2887,-1.33371 2.1782,-7.17846 4.875,-10 2.80122,-4.83933 3.22238,-13.2151 -3.625,-14.8125 -23.72608,-9.73492 -49.44103,-14.0142 -75.0625,-13.71875 l 0,1 0,1 z"
       style="fill:#c60032;fill-opacity:1;stroke:#c60032;stroke-width:1px;stroke-linecap:butt;stroke-linejoin:miter;stroke-opacity:1" />
    <path
       inkscape:connector-curvature="0"
       id="path4066-0-1-4-2"
       d="m 352.96875,815.125 c -57.58782,2.40201 -115.30393,8.61843 -171.1875,22.90625 -5.58827,2.85752 -3.68804,9.85605 -1.6875,14.34375 0.19908,5.68321 1.85701,14.74835 9.46875,13.71875 32.85933,-9.95503 66.53254,-17.49935 100.66874,-22.02327 22.44858,-3.10207 45.28176,-4.5756 67.89376,-6.03923 6.98884,-3.71984 1.74801,-11.89456 2.5625,-17.625 -0.89674,-3.27813 -4.34806,-5.60671 -7.71875,-5.28125 z"
       style="fill:#c60032;fill-opacity:1;stroke:#c60032;stroke-width:0.21321961;stroke-linecap:round;stroke-linejoin:miter;stroke-miterlimit:0;stroke-opacity:1;stroke-dasharray:none" />
    <path
       inkscape:connector-curvature="0"
       id="path3084-2-1-1-9"
       d="m 443.28125,767.90625 c -38.57886,8.65117 -77.55085,21.21722 -108.3125,46.8125 8.49558,0.47401 10.12425,13.23725 19.15625,11.71875 15.19745,-9.20279 30.81377,-18.54937 47.59375,-24.6875 19.88421,-7.80359 40.83322,-12.45515 62.09375,-14.28125 -8.92309,-4.44233 -10.14148,-17.98426 -20.53125,-19.5625 z"
       style="fill:#c60032;fill-opacity:1;stroke:#c60032;stroke-width:1px;stroke-linecap:butt;stroke-linejoin:miter;stroke-opacity:1" />
    <path
       inkscape:connector-curvature="0"
       id="path3866-7-4-5-0"
       d="m 258.5625,692.5 c -7.58035,4.01467 -13.35964,11.61663 -16.71875,19.25 0.2769,8.46936 9.83686,11.52635 14.03125,17.78125 26.99504,26.68664 48.68711,58.16823 71,88.90625 6.34398,2.95441 10.74558,-4.47889 16.71875,-4.84375 6.31396,-4.35356 1.9664,-12.67497 -1.73566,-17.22218 -22.28486,-37.40415 -48.55988,-72.65242 -79.51434,-103.30907 -1.18739,-0.50479 -2.50004,-0.67827 -3.78125,-0.5625 z"
       style="fill:#c60032;fill-opacity:1;stroke:#c60032;stroke-width:0.18552876;stroke-linecap:round;stroke-linejoin:miter;stroke-miterlimit:0;stroke-opacity:1;stroke-dasharray:none" />
    <path
       inkscape:connector-curvature="0"
       id="path3868-3-4-7-5"
       d="m 185.15625,632.40625 c -8.14245,2.3738 -7.23497,13.01925 -13.96875,17.09375 -4.53604,4.26671 -3.6027,12.47523 2.78125,14.375 18.59542,10.99736 34.76927,25.59664 52.9375,37.125 8.93598,-0.48175 11.35206,-10.5167 17.5,-15.28125 3.54641,-4.69745 1.81361,-11.92618 -3.59393,-14.31749 -16.79922,-14.65607 -33.90071,-29.92854 -54.40607,-39.02626 -0.41519,0.027 -0.83766,-0.0415 -1.25,0.0312 z"
       style="fill:#c60032;fill-opacity:1;stroke:#c60032;stroke-width:0.18552876;stroke-linecap:round;stroke-linejoin:miter;stroke-miterlimit:0;stroke-opacity:1;stroke-dasharray:none" />
    <path
       inkscape:connector-curvature="0"
       id="path3871-2-4-4-9"
       d="m 330.84375,835.6875 c -9.20552,3.48689 -9.68139,14.88169 -13.70352,22.53825 -16.24665,45.52434 -17.45456,95.05919 -13.95273,142.83675 2.49572,7.7522 16.89263,8.311 17.03125,-1 -0.94957,-45.94526 -0.16704,-93.41991 17.96714,-136.38595 1.60175,-6.59168 7.41486,-12.46853 6.84536,-19.3328 -1.9565,-5.70218 -9.14738,-7.32301 -14.1875,-8.65625 z"
       style="fill:#c60032;fill-opacity:1;stroke:#c60032;stroke-width:0.19880715;stroke-linecap:round;stroke-linejoin:miter;stroke-miterlimit:0;stroke-opacity:1;stroke-dasharray:none" />
    <path
       inkscape:connector-curvature="0"
       id="path4725-3-8-7-5"
       d="m 181.75,873.15625 c -7.61667,2.90415 -10.23529,12.63226 -18.5625,14.5625 -5.58916,3.61162 -4.23929,12.16792 1.34097,15.04131 32.0934,33.85133 63.59216,68.38635 96.4319,101.42644 7.24029,1.4363 16.51663,3.3493 22.63338,-1.7177 4.41382,-7.1753 -4.26055,-12.48561 -7.85313,-17.65288 -30.91507,-36.0459 -59.62229,-74.03094 -89.67812,-110.69092 -1.29569,-0.75484 -2.8159,-1.12162 -4.3125,-0.96875 z"
       style="fill:#c60032;fill-opacity:1;stroke:#c60032;stroke-width:0.22779043;stroke-linecap:round;stroke-linejoin:miter;stroke-miterlimit:0;stroke-opacity:0.15936255;stroke-dasharray:none" />
    <path
       inkscape:connector-curvature="0"
       id="path4727-5-0-2-4"
       d="m 122.875,879.03125 c -8.23691,5.8063 -7.37689,17.03623 -11.24875,25.46 -8.86245,31.08135 -14.346014,63.33976 -15.37625,95.63375 3.410765,8.4281 13.64023,4.5429 20.5,6.0312 5.96292,1.2821 14.65626,-0.9657 14.1392,-8.52825 2.32363,-34.33602 10.92913,-68.04942 23.76705,-99.9092 0.10328,-7.596 -8.64412,-7.85255 -13.96875,-9.4375 -6.57379,-1.83253 -10.32083,-10.48961 -17.8125,-9.25 z"
       style="fill:#c60032;fill-opacity:1;stroke:#c60032;stroke-width:0.22779043;stroke-linecap:round;stroke-linejoin:miter;stroke-miterlimit:0;stroke-opacity:0.15936255;stroke-dasharray:none" />
    <path
       inkscape:connector-curvature="0"
       id="path4729-5-6-2-7"
       d="m 114.34375,848.78125 c -48.63081,11.61502 -96.636789,27.74552 -140.4375,52.03125 -5.489524,8.2517 -0.125409,18.23636 -1.40625,27.3125 -0.673366,5.92237 5.667218,12.92087 11.44897,8.37771 44.557699,-21.72058 90.944698,-40.5632 139.64478,-50.19021 6.91898,-3.67775 2.58925,-12.06534 -0.3125,-16.9375 -2.18275,-6.50587 1.48359,-16.64622 -6.21875,-20.3125 -0.85133,-0.14366 -1.79231,-0.41731 -2.71875,-0.28125 z"
       style="fill:#c60032;fill-opacity:1;stroke:#c60032;stroke-width:0.22779043;stroke-linecap:round;stroke-linejoin:miter;stroke-miterlimit:0;stroke-opacity:0.15936255;stroke-dasharray:none" />
  </g>
  <text
     xml:space="preserve"
     style="font-size:9px;font-style:normal;font-variant:normal;font-weight:bold;font-stretch:normal;text-align:start;line-height:125%;letter-spacing:0px;word-spacing:0px;writing-mode:lr-tb;text-anchor:start;fill:#000000;fill-opacity:1;stroke:none;font-family:Gentium Basic;-inkscape-font-specification:Gentium Basic Bold"
     x="5.8563929"
     y="10.634915"
     id="text3133"
     sodipodi:linespacing="125%"><tspan
       sodipodi:role="line"
       id="tspan3135"
       x="5.8563929"
       y="10.634915">2</tspan></text>
</svg>
